<?xml version="1.0" standalone="no"?>
<!DOCTYPE svg PUBLIC "-//W3C//DTD SVG 20010904//EN"
 "http://www.w3.org/TR/2001/REC-SVG-20010904/DTD/svg10.dtd">
<svg version="1.0" xmlns="http://www.w3.org/2000/svg"
 width="696.000000pt" height="841.000000pt" viewBox="0 0 696.000000 841.000000"
 preserveAspectRatio="xMidYMid meet">

<g transform="translate(0.000000,841.000000) scale(0.100000,-0.100000)"
fill="#000000" stroke="none">
<path d="M654 8374 c-9 -21 -25 -67 -36 -103 -11 -36 -24 -70 -29 -75 -5 -6
-9 -18 -9 -28 0 -17 -53 -250 -81 -358 -12 -46 -20 -90 -38 -220 -6 -41 -15
-93 -21 -115 -5 -22 -10 -65 -10 -95 0 -54 -3 -91 -37 -440 -14 -146 -17 -288
-16 -845 0 -423 5 -716 12 -795 13 -140 27 -395 41 -733 5 -125 12 -232 15
-237 3 -5 10 -76 16 -157 16 -249 27 -394 38 -478 5 -44 15 -147 21 -230 6
-82 17 -208 25 -280 8 -71 19 -213 25 -315 6 -102 17 -246 25 -320 13 -126 19
-199 45 -550 37 -506 45 -861 22 -965 -17 -75 -52 -192 -68 -225 -54 -113 -81
-164 -94 -174 -8 -6 -34 -37 -58 -69 -23 -31 -47 -57 -52 -57 -6 0 -10 -6 -10
-13 0 -6 -12 -18 -28 -24 -15 -7 -39 -24 -55 -38 -52 -50 -160 -91 -277 -109
-14 -2 153 -4 371 -5 l397 -1 6 -33 c15 -81 184 -165 421 -209 97 -18 683 -18
780 0 122 23 273 71 305 97 8 7 24 15 35 19 24 7 75 50 75 63 0 5 6 22 12 37
l13 29 1632 -7 c1671 -6 1678 -6 1783 32 87 31 204 118 250 185 18 26 37 47
42 47 4 0 8 5 8 12 0 6 11 26 25 43 27 37 64 118 84 185 7 25 17 54 21 65 40
106 55 334 30 470 -6 33 -16 101 -21 150 -5 50 -14 126 -18 170 -5 44 -14 134
-20 200 -6 66 -15 156 -20 200 -6 44 -15 132 -21 195 -6 63 -17 162 -25 220
-8 58 -17 137 -20 175 -12 140 -23 252 -33 335 -22 172 -32 297 -32 380 -1 47
-5 117 -11 155 -10 69 -20 202 -38 485 -5 80 -14 195 -20 255 -46 497 -69
1974 -31 2020 18 22 38 55 46 78 3 9 10 17 14 17 4 0 10 8 14 18 6 19 19 40
53 89 13 17 23 35 23 40 0 4 12 22 28 40 15 18 38 54 52 80 14 26 33 55 43 64
9 9 17 20 17 23 0 12 112 161 176 235 17 20 39 47 50 60 18 23 53 62 171 189
27 28 52 52 56 52 4 0 32 25 62 55 30 30 69 62 85 70 17 9 40 25 52 37 l20 20
-199 -7 c-109 -4 -214 -11 -233 -15 -19 -5 -105 -16 -190 -25 -85 -9 -173 -20
-195 -25 -73 -17 -74 -17 -59 42 8 29 14 73 14 98 0 45 23 178 40 235 5 17 14
57 20 90 6 33 17 80 25 105 7 25 25 92 40 150 15 58 31 113 36 122 5 10 9 27
9 37 0 11 4 23 10 26 6 3 10 15 10 26 0 11 7 31 16 45 9 13 13 28 10 32 -4 4
-1276 9 -2827 10 l-2819 4 -16 -38z m5514 -89 c2 -2 -1 -11 -6 -22 -22 -41
-41 -91 -52 -133 -6 -25 -16 -58 -21 -75 -6 -16 -17 -57 -25 -90 -31 -125 -35
-135 -63 -136 -181 -9 -244 -16 -226 -24 11 -5 22 -12 25 -15 6 -8 119 -77
163 -100 23 -12 27 -19 23 -40 -4 -14 -15 -87 -25 -163 -10 -76 -21 -140 -24
-144 -4 -3 -23 -9 -44 -14 -21 -4 -72 -17 -113 -29 -41 -12 -100 -28 -130 -37
-30 -8 -123 -42 -207 -74 -83 -33 -156 -59 -162 -59 -5 0 -22 -7 -38 -15 -15
-8 -59 -29 -98 -46 -224 -100 -242 -109 -287 -136 -20 -13 -81 -46 -134 -74
-54 -28 -112 -62 -129 -75 -18 -13 -37 -24 -43 -24 -7 0 -12 -4 -12 -9 0 -4
-22 -18 -50 -29 -27 -12 -50 -26 -50 -31 0 -6 -7 -11 -15 -11 -8 0 -15 -4 -15
-10 0 -5 -6 -10 -14 -10 -8 0 -16 -7 -20 -15 -3 -8 -10 -15 -16 -15 -6 0 -26
-11 -43 -24 -18 -13 -50 -34 -71 -46 -21 -12 -60 -39 -85 -60 -25 -21 -58 -45
-72 -52 -14 -7 -48 -32 -75 -55 -73 -63 -202 -165 -235 -188 -16 -11 -29 -26
-29 -32 0 -7 -4 -13 -10 -13 -13 0 -42 -24 -106 -87 -29 -29 -56 -53 -60 -53
-5 0 -41 -34 -81 -75 -40 -41 -74 -75 -77 -75 -6 0 -23 -17 -198 -202 -69 -73
-136 -145 -148 -160 -11 -15 -41 -47 -65 -72 -25 -24 -45 -47 -45 -50 0 -3 -8
-14 -17 -25 -41 -43 -83 -92 -83 -96 0 -3 -18 -24 -40 -46 -22 -23 -40 -46
-40 -52 0 -5 -8 -17 -17 -26 -25 -22 -93 -107 -130 -161 -18 -25 -48 -63 -67
-85 -20 -22 -36 -46 -36 -52 0 -7 -4 -13 -10 -13 -5 0 -10 -6 -10 -13 0 -8
-11 -24 -25 -37 -14 -13 -25 -29 -25 -37 0 -7 -4 -13 -9 -13 -5 0 -12 -8 -15
-18 -4 -10 -14 -27 -24 -38 -19 -20 -102 -143 -102 -151 0 -2 -11 -16 -24 -30
-14 -15 -33 -42 -43 -62 -10 -20 -21 -37 -25 -39 -5 -2 -8 -10 -8 -18 0 -8 -4
-14 -10 -14 -5 0 -10 -4 -10 -9 0 -4 -22 -42 -50 -84 -28 -42 -50 -83 -50 -91
0 -8 -4 -16 -8 -18 -11 -4 -122 -188 -155 -255 -27 -57 -67 -125 -78 -133 -3
-3 -12 -23 -20 -45 -7 -22 -18 -47 -24 -55 -18 -25 -72 -141 -95 -205 -33 -93
-45 -276 -32 -466 6 -86 18 -177 27 -201 8 -23 15 -53 15 -65 0 -12 4 -32 9
-45 5 -13 28 -84 52 -158 23 -74 45 -144 50 -155 17 -44 18 -62 4 -81 -8 -10
-15 -27 -15 -37 0 -19 -54 -135 -71 -152 -5 -5 -9 -17 -9 -27 0 -10 -4 -18
-10 -18 -5 0 -10 -8 -10 -19 0 -10 -6 -24 -14 -30 -7 -6 -19 -32 -26 -56 -7
-25 -17 -48 -21 -51 -5 -3 -26 -40 -48 -84 -22 -44 -45 -87 -50 -97 -6 -10
-20 -42 -32 -71 -16 -39 -27 -52 -43 -53 -130 -3 -240 -34 -293 -82 -21 -19
-23 -29 -23 -134 l0 -113 42 -30 c23 -17 52 -33 65 -37 17 -4 22 -10 18 -22
-4 -9 -15 -43 -26 -76 -21 -64 -59 -115 -150 -205 -87 -86 -114 -106 -178
-130 -35 -13 -78 -39 -103 -63 -39 -37 -43 -44 -46 -102 l-4 -62 -102 -23
c-55 -12 -107 -27 -114 -33 -26 -20 -22 2 5 34 97 113 137 204 190 424 14 58
17 119 15 365 0 162 -8 385 -17 495 -8 110 -20 270 -25 355 -6 85 -15 200 -20
255 -5 55 -12 141 -15 190 -3 50 -10 143 -17 208 -13 135 -19 121 85 191 32
21 55 41 53 43 -3 3 -37 11 -77 19 -40 7 -76 17 -80 21 -4 5 -12 73 -19 153
-6 80 -15 197 -21 260 -5 63 -14 176 -19 250 -5 74 -14 167 -20 205 -5 39 -14
174 -20 300 -6 127 -17 311 -25 410 -19 250 -37 681 -51 1205 -9 351 13 974
46 1270 5 47 17 152 25 235 9 82 19 153 24 158 4 4 36 12 72 17 123 18 164 26
175 33 7 4 58 16 115 27 56 11 104 22 107 24 2 2 -16 7 -40 11 -24 3 -90 15
-148 25 -58 10 -125 21 -150 25 -105 14 -101 12 -94 58 6 42 34 154 80 322 29
104 40 138 62 182 l16 33 606 2 c683 3 4773 -3 4778 -7z m372 -939 c0 -3 -21
-14 -47 -26 -27 -13 -56 -26 -65 -31 -10 -5 -25 -9 -34 -9 -9 0 -30 -7 -47
-16 -58 -30 -67 -34 -81 -34 -8 0 -16 -4 -18 -9 -1 -5 -43 -28 -93 -51 -94
-43 -136 -65 -245 -123 -36 -20 -90 -48 -120 -63 -30 -15 -68 -37 -85 -48 -43
-30 -68 -45 -87 -52 -10 -3 -18 -10 -18 -15 0 -5 -7 -9 -15 -9 -12 0 -68 -32
-100 -58 -5 -4 -27 -18 -47 -31 -21 -12 -38 -26 -38 -31 0 -4 -13 -13 -30 -18
-28 -10 -92 -53 -115 -78 -14 -15 -83 -64 -89 -64 -7 0 -119 -85 -156 -117
-13 -13 -28 -23 -31 -23 -9 0 -61 -43 -112 -92 -22 -21 -43 -38 -47 -38 -4 0
-36 -26 -71 -59 -35 -32 -77 -69 -93 -82 -53 -44 -461 -455 -490 -495 -17 -21
-52 -60 -78 -85 -26 -26 -48 -51 -48 -55 0 -5 -19 -29 -43 -54 -23 -25 -53
-61 -67 -80 -32 -44 -93 -114 -102 -118 -5 -2 -8 -8 -8 -14 0 -5 -16 -26 -35
-46 -19 -20 -35 -41 -35 -45 0 -10 -62 -91 -72 -95 -5 -2 -8 -9 -8 -15 0 -7
-11 -20 -24 -30 -13 -10 -30 -32 -37 -49 -7 -17 -25 -44 -41 -60 -16 -16 -41
-48 -56 -71 -15 -23 -29 -44 -32 -47 -10 -10 -41 -65 -47 -82 -3 -10 -9 -18
-14 -18 -5 0 -17 -16 -26 -35 -9 -19 -21 -35 -25 -35 -5 0 -16 -16 -24 -36 -8
-20 -20 -41 -25 -48 -33 -37 -119 -169 -119 -181 0 -8 -3 -15 -7 -15 -5 0 -24
-27 -43 -60 -19 -33 -38 -60 -42 -60 -5 0 -8 -7 -8 -15 0 -8 -4 -15 -8 -15 -4
0 -16 -20 -26 -43 -10 -24 -29 -57 -42 -72 -13 -15 -24 -34 -24 -42 0 -7 -4
-13 -10 -13 -5 0 -10 -5 -10 -11 0 -6 -13 -30 -30 -54 -16 -24 -34 -54 -40
-67 -11 -26 -25 -49 -56 -93 -12 -16 -38 -61 -59 -100 -55 -104 -87 -158 -101
-175 -7 -8 -28 -44 -47 -80 -59 -113 -100 -185 -108 -190 -5 -3 -16 -24 -25
-45 -9 -22 -37 -74 -62 -115 -25 -41 -62 -106 -82 -145 -43 -82 -63 -118 -70
-125 -8 -8 -28 -42 -52 -90 -13 -25 -25 -47 -29 -50 -3 -3 -13 -21 -23 -40
-23 -46 -37 -69 -62 -105 -11 -17 -27 -46 -34 -65 -8 -19 -24 -48 -35 -65 -12
-16 -28 -45 -36 -63 -8 -17 -17 -32 -20 -32 -4 0 -23 -35 -44 -78 -45 -92
-141 -293 -164 -342 -8 -19 -18 -37 -21 -40 -8 -8 -60 -114 -60 -123 0 -5 -7
-15 -15 -23 -8 -8 -19 -33 -26 -56 -6 -22 -21 -58 -35 -79 -13 -21 -24 -43
-24 -49 0 -18 -52 -61 -69 -57 -29 6 -13 59 65 217 42 85 80 162 84 170 52 92
120 236 120 251 0 10 4 19 9 19 5 0 11 8 15 18 3 9 10 24 15 32 5 8 17 33 27
55 9 22 20 42 23 45 3 3 26 43 49 90 48 94 101 190 118 211 6 8 14 22 17 32 4
10 35 66 69 125 35 59 74 129 88 155 13 26 28 47 32 47 5 0 8 7 8 15 0 8 5 15
10 15 6 0 10 6 10 14 0 8 9 30 21 48 72 114 179 303 179 314 0 8 4 14 9 14 5
0 11 8 15 18 3 9 11 26 18 37 47 72 97 157 117 195 13 25 27 47 31 50 4 3 15
19 24 35 9 17 30 53 46 80 16 28 39 69 51 93 12 23 26 42 31 42 4 0 8 7 8 15
0 8 3 15 8 15 7 0 11 6 50 82 13 25 31 54 40 64 10 10 24 33 32 49 9 17 32 56
53 87 20 31 37 62 37 68 0 5 5 10 10 10 6 0 10 4 10 10 0 5 22 41 50 80 27 39
50 77 50 85 0 8 4 15 9 15 5 0 20 17 32 38 13 20 25 39 28 42 4 3 12 17 20 33
8 15 18 27 23 27 4 0 14 15 21 33 12 27 72 114 107 154 5 7 10 17 10 23 0 5 5
10 10 10 6 0 10 5 10 12 0 12 79 121 93 126 4 2 7 8 7 14 0 6 8 18 19 27 10 9
21 26 25 39 4 12 11 22 15 22 5 0 20 17 33 38 14 20 38 51 52 67 15 17 34 42
42 57 8 15 29 42 47 60 18 18 55 61 81 96 26 35 58 73 70 85 11 12 43 49 71
82 27 33 68 80 91 105 22 25 58 65 80 88 72 81 339 346 408 407 38 33 83 74
101 90 18 17 50 44 71 60 21 17 56 47 77 67 21 20 46 40 55 42 10 3 40 27 67
52 28 25 60 53 73 61 12 9 21 18 18 20 -6 7 -50 -18 -59 -33 -4 -7 -42 -38
-85 -68 -42 -30 -113 -84 -157 -120 -44 -36 -93 -76 -109 -88 -15 -13 -50 -44
-77 -70 -27 -27 -53 -48 -58 -48 -11 0 -251 -240 -251 -251 0 -5 -4 -9 -10 -9
-9 0 -90 -75 -90 -84 0 -2 -34 -38 -75 -80 -41 -42 -75 -83 -75 -91 0 -8 -5
-15 -11 -15 -13 0 -23 -10 -83 -85 -27 -32 -54 -64 -60 -71 -27 -28 -66 -74
-66 -79 0 -2 -12 -17 -27 -33 -16 -16 -37 -42 -48 -58 -11 -15 -37 -46 -58
-68 -20 -23 -51 -65 -69 -93 -18 -29 -36 -53 -40 -53 -4 0 -8 -7 -8 -15 0 -8
-6 -15 -12 -15 -13 -1 -68 -73 -68 -88 0 -5 -9 -18 -20 -30 -12 -12 -50 -64
-85 -114 -36 -51 -69 -98 -75 -105 -5 -7 -10 -15 -10 -19 0 -4 -17 -28 -38
-53 -20 -25 -44 -59 -52 -76 -8 -16 -23 -39 -32 -49 -10 -11 -20 -28 -24 -38
-3 -10 -9 -18 -14 -18 -5 0 -17 -16 -26 -35 -9 -19 -20 -35 -25 -35 -5 0 -9
-6 -9 -13 0 -8 -13 -33 -30 -55 -16 -23 -30 -46 -30 -52 0 -5 -4 -10 -10 -10
-5 0 -10 -5 -10 -10 0 -6 -10 -22 -23 -36 -13 -14 -29 -41 -37 -62 -11 -32
-22 -49 -69 -108 -5 -6 -28 -44 -52 -85 -25 -41 -62 -101 -82 -134 -21 -33
-66 -107 -100 -165 -34 -58 -71 -119 -82 -135 -12 -17 -26 -42 -32 -56 -6 -14
-28 -52 -49 -85 -21 -32 -44 -70 -51 -83 -7 -13 -25 -47 -40 -75 -15 -28 -43
-74 -63 -101 -47 -67 -70 -110 -70 -129 0 -9 -4 -16 -10 -16 -5 0 -10 -7 -10
-15 0 -8 -4 -15 -9 -15 -5 0 -11 -8 -15 -17 -3 -10 -19 -38 -35 -63 -17 -25
-37 -61 -46 -80 -9 -19 -21 -42 -25 -50 -5 -8 -37 -64 -72 -125 -35 -60 -70
-122 -77 -137 -8 -15 -17 -25 -21 -23 -8 5 -62 151 -78 210 -9 36 -22 97 -52
253 -15 77 -12 355 4 427 24 107 38 160 48 178 56 110 62 116 71 70 9 -48 54
-195 82 -268 14 -38 31 -85 36 -103 20 -66 19 -23 -1 49 -11 41 -27 106 -35
144 -8 39 -19 89 -25 111 -19 85 -24 200 -8 230 21 42 41 76 59 101 15 21 17
19 39 -58 13 -44 27 -82 32 -85 4 -3 8 -18 8 -34 0 -16 4 -39 9 -52 5 -13 12
-36 16 -52 3 -15 8 -27 10 -25 2 2 -5 45 -15 94 -11 50 -19 106 -20 125 0 19
-7 53 -15 75 -19 52 -19 100 0 119 8 8 15 20 15 26 0 13 81 144 92 148 4 2 8
8 8 13 0 5 16 33 35 63 19 30 35 58 35 61 0 7 51 77 61 85 4 3 23 32 42 65 19
33 45 71 57 85 12 14 43 57 68 95 25 39 52 76 59 83 7 8 18 23 25 35 6 12 29
43 50 68 21 25 38 48 38 52 0 8 33 49 73 90 15 16 27 33 27 38 0 5 5 9 10 9 6
0 10 6 10 13 0 7 19 33 43 59 61 67 87 100 99 126 6 12 17 22 25 22 7 0 13 6
13 13 0 7 9 19 20 27 11 8 20 17 20 21 0 7 72 88 148 167 28 30 52 57 52 60 0
7 477 482 485 482 3 0 18 12 33 28 15 15 45 41 66 57 21 17 50 41 65 55 14 14
44 38 66 55 44 33 70 54 123 102 20 18 44 35 53 38 10 3 37 24 61 45 24 22 47
40 51 40 4 0 20 11 35 25 15 14 32 25 38 25 5 0 19 8 30 18 11 9 49 37 84 61
36 25 67 48 68 53 2 4 10 8 17 8 15 0 78 38 108 64 9 9 20 16 24 16 3 0 20 10
37 23 17 12 50 31 74 41 23 11 42 23 42 28 0 4 6 8 14 8 8 0 36 15 63 33 27
17 65 39 84 48 19 9 90 43 159 77 166 81 165 81 186 40 9 -18 25 -44 35 -57
l19 -24 -5 29 c-16 103 -16 114 2 120 26 8 64 25 93 39 14 7 51 21 83 30 31 9
57 21 57 26 0 5 12 9 28 9 15 0 52 9 82 20 68 26 221 75 275 88 22 6 64 18 94
26 29 9 63 16 75 16 12 0 65 9 117 21 52 11 125 25 163 30 38 5 71 11 74 14 6
6 82 7 82 1z m80 -56 c0 -5 -6 -10 -14 -10 -21 0 -336 -319 -336 -341 0 -5 -4
-9 -9 -9 -5 0 -12 -8 -15 -18 -3 -10 -24 -37 -45 -60 -22 -23 -61 -75 -87
-115 -27 -39 -52 -73 -56 -75 -4 -2 -8 -8 -8 -14 0 -9 -42 -69 -66 -95 -7 -7
-14 -9 -18 -6 -7 7 -67 18 -184 33 -40 6 -82 15 -92 20 -10 6 -29 10 -42 10
-19 -1 -20 -2 -7 -10 8 -5 38 -17 65 -26 27 -9 76 -29 109 -44 33 -16 78 -36
100 -45 23 -9 35 -19 29 -23 -7 -4 -33 -42 -58 -84 -26 -43 -51 -80 -57 -83
-5 -4 -9 -15 -9 -26 0 -24 2 -25 -82 11 -38 17 -72 30 -75 30 -2 0 23 -28 56
-62 34 -34 61 -63 61 -66 0 -2 -11 -18 -24 -35 -13 -18 -27 -42 -31 -54 -3
-13 -11 -23 -16 -23 -5 0 -9 -6 -9 -14 0 -16 -66 -151 -85 -176 -6 -8 -18 -31
-25 -50 -8 -19 -20 -41 -27 -48 -7 -7 -13 -19 -13 -26 0 -7 -19 -50 -42 -95
-24 -45 -57 -110 -75 -144 -17 -34 -32 -70 -32 -79 -1 -10 -5 -18 -11 -18 -5
0 -10 -8 -10 -18 0 -10 -4 -22 -9 -28 -18 -17 -111 -208 -111 -226 0 -10 -4
-18 -8 -18 -4 0 -15 -15 -23 -32 -8 -18 -33 -69 -55 -113 -23 -44 -57 -111
-76 -150 -19 -38 -46 -90 -59 -115 -14 -25 -33 -65 -44 -90 -16 -39 -47 -94
-92 -166 -7 -10 -20 -35 -29 -54 -48 -105 -53 -110 -124 -132 -77 -24 -128
-29 -345 -37 l-190 -6 182 -14 c107 -8 219 -11 272 -7 50 4 91 5 91 3 0 -2 -7
-17 -15 -34 -23 -45 -60 -81 -92 -89 -15 -3 -37 -12 -48 -18 -11 -7 -47 -18
-80 -25 -33 -7 -76 -17 -95 -23 -19 -6 -140 -13 -268 -15 -128 -3 -231 -7
-229 -10 3 -2 96 -10 208 -18 207 -13 388 -7 457 16 18 6 35 9 38 7 5 -6 -89
-151 -150 -234 -25 -33 -46 -65 -46 -71 0 -5 -8 -19 -17 -31 -45 -52 -53 -63
-53 -67 0 -3 -8 -13 -17 -23 -23 -23 -53 -63 -101 -129 -20 -29 -42 -52 -47
-53 -6 0 -19 -14 -29 -31 -20 -34 -102 -124 -233 -255 -97 -98 -134 -117 -248
-130 -22 -3 -76 -9 -120 -15 -142 -19 -508 -7 -633 21 -23 6 -51 10 -63 10
-31 0 -13 -17 23 -23 18 -2 76 -14 128 -25 216 -46 297 -54 501 -50 l196 3
-26 -23 c-77 -68 -158 -87 -431 -98 -145 -6 -265 2 -425 31 -44 7 -100 16
-125 20 -44 6 -44 5 15 -15 109 -36 121 -40 139 -40 9 0 38 -6 64 -14 80 -24
211 -36 387 -36 146 0 167 -2 155 -14 -33 -31 -275 -156 -304 -156 -8 0 -27
-6 -43 -14 -59 -29 -126 -57 -186 -77 -34 -11 -66 -25 -72 -30 -5 -5 -18 -9
-30 -9 -12 0 -79 -21 -151 -46 -71 -26 -141 -49 -157 -51 -15 -3 -30 -9 -33
-14 -3 -5 -16 -9 -29 -9 -13 0 -27 -5 -30 -10 -3 -5 -17 -10 -30 -10 -23 0
-151 -37 -225 -65 -62 -23 -120 -38 -125 -33 -9 8 111 220 134 238 4 3 21 34
39 70 33 65 53 101 62 110 9 9 30 45 53 90 12 25 24 47 28 50 3 3 13 21 23 40
9 19 35 64 57 100 22 36 48 83 59 105 22 43 33 62 65 110 11 16 29 48 41 70
42 82 137 240 145 243 5 2 9 10 9 18 0 8 22 49 48 92 27 42 52 84 56 92 4 8
21 38 37 65 16 28 32 58 35 68 4 9 10 17 15 17 5 0 9 5 9 10 0 6 16 33 35 62
19 28 38 61 41 74 3 13 10 24 15 24 5 0 9 7 9 15 0 8 5 15 10 15 6 0 10 4 10
10 0 10 41 76 64 102 8 9 27 42 42 72 15 31 34 63 43 73 9 10 38 54 65 98 27
44 68 107 92 141 23 33 54 82 70 109 15 27 38 60 51 74 13 15 29 38 36 54 6
15 15 27 19 27 4 0 17 18 28 40 11 22 25 40 30 40 6 0 10 6 10 13 0 7 21 39
48 72 26 33 53 71 60 85 7 14 31 45 52 70 22 25 52 63 67 85 42 60 197 254
248 308 25 26 45 51 45 55 0 5 29 39 65 77 36 38 65 72 65 76 0 3 32 37 70 75
39 38 70 72 70 76 0 12 78 88 90 88 6 0 10 3 10 8 0 9 92 104 196 200 44 40
107 100 142 132 34 33 66 60 71 60 4 0 24 15 43 33 58 54 111 98 151 124 20
14 37 30 37 34 0 5 4 9 10 9 5 0 20 9 32 19 71 61 84 71 91 71 9 0 76 47 92
65 19 20 99 75 110 75 6 0 27 14 45 30 18 17 37 30 42 30 5 0 33 18 63 40 30
22 61 40 70 40 8 0 15 5 15 10 0 6 6 10 14 10 7 0 19 6 25 14 7 8 26 22 44 31
18 9 86 45 152 81 66 35 149 78 185 95 111 54 274 130 300 141 67 29 87 37
115 46 17 5 31 10 33 11 1 1 2 -3 2 -9z m-789 -1477 c-3 -196 15 -1006 29
-1228 6 -95 5 -142 -2 -146 -10 -6 -98 -21 -208 -35 l-55 -7 40 -14 c22 -8 69
-23 105 -33 36 -10 81 -25 101 -31 l36 -13 7 -96 c4 -52 11 -160 16 -240 20
-316 30 -458 40 -530 5 -41 14 -163 20 -270 6 -107 17 -253 25 -325 8 -71 19
-184 25 -250 6 -66 16 -156 22 -200 5 -44 12 -103 15 -131 l5 -51 -103 -7
c-57 -3 -157 -10 -221 -14 -182 -12 -166 -21 72 -42 69 -6 158 -18 198 -27
l72 -16 0 -61 c0 -34 7 -96 15 -139 8 -43 15 -104 15 -135 0 -73 17 -241 37
-362 21 -126 21 -351 0 -405 -8 -22 -21 -62 -28 -90 -21 -82 -101 -210 -173
-279 -79 -74 -202 -149 -266 -161 -74 -14 -256 -17 -310 -5 -86 19 -175 69
-266 148 -46 41 -84 77 -84 82 0 4 -15 30 -33 56 -39 57 -67 112 -67 131 0 7
-4 13 -9 13 -4 0 -16 30 -26 67 -14 52 -19 104 -19 218 0 143 1 153 27 205 24
51 48 83 108 148 29 30 21 35 -31 17 -23 -8 -53 -15 -66 -15 -12 0 -26 -5 -29
-10 -3 -6 -19 -10 -35 -10 -16 0 -47 -6 -67 -14 -54 -20 -191 -52 -265 -61
-26 -3 -50 -10 -53 -16 -4 -5 -18 -9 -32 -9 -15 0 -40 -4 -57 -9 -129 -39
-338 -91 -367 -91 -12 0 -36 -4 -53 -9 -127 -39 -481 -129 -551 -141 -27 -5
-68 -13 -90 -18 -69 -16 -208 -52 -260 -67 -63 -17 -124 -31 -200 -45 -33 -7
-100 -22 -150 -35 -49 -13 -109 -26 -132 -30 -24 -4 -43 -11 -43 -16 0 -5 -12
-9 -27 -9 -16 0 -59 -10 -98 -21 -38 -11 -95 -24 -125 -29 -30 -5 -74 -13 -97
-18 -42 -9 -43 -9 -86 37 -88 95 -119 140 -138 203 -10 35 -19 66 -19 69 0 4
17 14 39 22 21 9 50 30 65 48 27 32 28 36 24 136 -3 97 -5 105 -28 124 -51 39
-115 63 -178 67 -58 4 -62 6 -56 26 3 11 12 31 20 43 8 12 14 31 14 42 0 11 5
23 10 26 5 3 10 15 10 26 0 10 4 19 9 19 4 0 16 21 26 48 10 26 21 49 25 52 4
3 21 37 38 75 62 142 61 140 111 154 25 7 54 17 64 22 10 6 55 19 100 29 45
10 102 26 127 36 25 9 59 20 75 24 17 5 75 24 130 44 55 19 110 36 123 36 12
0 30 4 40 9 9 5 40 16 67 24 45 14 84 27 140 47 11 4 37 15 58 24 21 9 46 16
57 16 10 0 22 5 25 10 3 6 17 10 30 10 13 0 38 8 57 17 59 29 68 33 78 33 6 0
48 17 93 39 45 21 94 41 109 45 15 3 33 12 40 19 7 7 29 24 48 37 19 13 41 30
48 37 7 7 17 13 21 13 4 0 19 9 32 20 30 24 34 28 84 64 22 17 52 42 68 58 15
15 31 28 35 28 5 0 41 32 81 70 39 39 74 70 77 70 5 0 50 46 85 87 8 10 33 34
55 53 22 19 53 53 71 75 17 22 53 63 79 92 73 77 123 138 177 212 27 36 52 68
56 71 4 3 24 30 46 60 22 30 42 57 46 60 3 3 9 15 13 28 4 12 12 22 17 22 5 0
9 5 9 11 0 7 17 32 37 58 21 25 46 61 57 81 10 19 34 56 52 83 19 26 34 52 34
57 0 6 3 10 8 10 4 0 16 16 26 35 11 19 23 35 28 35 4 0 8 11 8 25 0 14 4 25
9 25 5 0 12 8 15 18 13 32 31 62 38 62 5 0 8 5 8 12 0 6 6 19 14 27 7 9 36 59
63 111 28 52 67 122 87 155 20 33 36 68 36 78 0 9 4 17 8 17 5 0 17 19 28 43
10 23 35 70 56 105 21 34 38 66 38 70 0 5 22 51 49 103 69 135 85 166 122 244
19 39 37 72 42 73 4 2 7 12 7 23 0 10 5 19 10 19 6 0 10 6 10 14 0 7 6 19 13
25 8 6 20 30 27 53 8 24 18 49 23 56 6 7 20 32 32 55 12 23 38 74 58 112 20
39 41 81 46 95 6 14 35 70 66 125 30 55 54 108 55 118 0 9 3 17 8 17 4 0 5
-80 3 -177z m-4355 -4242 c-3 -5 -20 -11 -38 -14 -79 -14 -104 -21 -132 -36
-42 -24 -43 -38 -4 -55 102 -43 341 -59 473 -31 38 8 81 15 95 14 24 0 24 -1
-5 -14 -79 -35 -355 -45 -500 -17 -64 12 -124 38 -132 58 -7 19 34 64 59 64
11 0 29 5 41 12 12 6 49 15 82 18 33 4 61 8 63 9 2 0 1 -3 -2 -8z m464 -106
c-7 -8 -18 -15 -26 -15 -9 0 -5 8 9 23 23 23 37 17 17 -8z m-690 -51 c70 -32
94 -37 210 -49 116 -12 119 -13 50 -13 -88 -1 -225 18 -257 36 -12 6 -24 12
-27 12 -3 0 -6 -30 -6 -66 0 -41 -4 -63 -10 -59 -5 3 -10 45 -10 93 1 70 3 84
13 72 7 -8 23 -20 37 -26z m770 -123 c-19 -37 -127 -79 -259 -101 -68 -12
-136 -20 -150 -18 -14 2 10 9 54 16 145 24 219 43 268 68 70 35 77 45 77 107
0 87 15 103 18 20 2 -40 -2 -81 -8 -92z m2652 -43 c-2 -40 -7 -76 -11 -79 -3
-3 -39 -17 -80 -30 -68 -22 -71 -24 -45 -31 65 -19 139 -42 144 -45 2 -2 7
-30 11 -61 4 -31 12 -77 18 -101 14 -54 9 -71 -22 -71 -13 0 -27 -4 -33 -10
-5 -5 -52 -23 -104 -39 l-95 -30 149 0 c166 -1 158 2 196 -78 11 -24 24 -43
29 -43 5 0 15 -15 22 -33 7 -17 28 -47 46 -66 18 -19 33 -38 33 -43 0 -4 6 -8
14 -8 8 0 18 -4 21 -10 4 -7 -420 -10 -1264 -10 l-1271 0 0 84 c0 47 -5 94
-12 108 -22 40 -55 77 -82 92 l-26 13 42 11 c24 6 79 20 123 32 44 12 98 25
120 30 55 12 107 25 199 49 43 12 88 21 100 21 13 0 42 6 67 14 24 8 71 19
104 26 33 7 78 18 100 25 51 17 242 62 337 80 90 18 125 26 408 100 36 10 87
21 115 26 27 4 75 15 105 24 30 9 73 20 95 24 22 5 94 23 160 41 66 18 137 34
158 37 20 3 40 9 43 14 3 5 25 9 48 9 l43 0 -5 -72z m-3322 -153 c0 -9 -17
-42 -37 -73 -21 -31 -43 -68 -49 -83 -16 -36 -153 -173 -194 -194 -19 -10 -37
-21 -40 -24 -9 -11 -65 -38 -92 -45 -16 -3 -28 -11 -28 -16 0 -6 20 -30 44
-54 31 -31 57 -47 87 -54 30 -7 36 -10 18 -11 -38 -2 -121 45 -146 82 -31 45
-29 51 15 66 20 8 44 19 52 26 8 7 35 23 59 35 25 12 82 61 128 108 62 64 93
105 124 168 40 80 59 102 59 69z m-472 -533 c15 -13 45 -33 67 -43 22 -11 47
-23 55 -28 23 -13 185 -52 285 -68 60 -10 166 -15 320 -15 243 0 350 11 494
52 41 11 81 19 90 18 25 -5 -102 -44 -244 -74 -123 -26 -145 -27 -395 -28
-222 0 -277 2 -340 17 -41 10 -104 25 -139 34 -35 8 -72 19 -82 24 -11 5 -28
14 -39 19 -11 6 -26 10 -33 10 -7 0 -24 12 -38 26 l-24 26 -5 -129 c-6 -125
-6 -123 -7 52 0 99 2 169 4 155 3 -13 17 -35 31 -48z m1492 28 c0 -13 -47 -55
-79 -71 -14 -7 -34 -19 -43 -27 -9 -8 -22 -12 -28 -10 -6 2 19 20 55 41 36 21
71 46 78 57 13 22 17 24 17 10z"/>
<path d="M5295 6738 l-20 -21 22 12 c23 12 40 31 26 30 -4 0 -17 -10 -28 -21z"/>
<path d="M5250 6713 c-14 -6 -79 -51 -90 -63 -3 -4 -22 -19 -43 -34 -21 -16
-35 -31 -33 -33 5 -5 89 57 94 70 2 4 8 7 13 7 5 0 17 7 26 15 10 8 27 21 38
29 21 16 20 18 -5 9z"/>
<path d="M2800 3010 c8 -5 22 -10 30 -10 13 0 13 1 0 10 -8 5 -22 10 -30 10
-13 0 -13 -1 0 -10z"/>
</g>
</svg>
